<svg id="Capa_1" enable-background="new 0 0 512 512" height="512" viewBox="0 0 512 512" width="512" xmlns="http://www.w3.org/2000/svg"><g><path d="m0 131.538v365.285c0 8.284 6.716 15 15 15h482c8.284 0 15-6.716 15-15v-365.285l-90.272-20h-340.888z" fill="#fff5f5"/><path d="m256 111.538v400.285h241c8.284 0 15-6.716 15-15v-365.285l-90.272-20z" fill="#ece6f2"/><path d="m497 .176h-482c-8.284 0-15 6.716-15 15v116.715h512v-116.715c0-8.284-6.716-15-15-15z" fill="#293f65"/><path d="m497 .176h-241v131.715h256v-116.715c0-8.284-6.716-15-15-15z" fill="#152133"/><path d="m445.232 81.437c8.141 0 15.94-7.085 15.564-15.403-.378-8.345-6.839-15.403-15.564-15.403-8.141 0-15.94 7.085-15.564 15.403.378 8.345 6.839 15.403 15.564 15.403z" fill="#c21456"/><path d="m388.768 81.437c8.141 0 15.94-7.085 15.564-15.403-.378-8.345-6.839-15.403-15.564-15.403-8.141 0-15.94 7.085-15.564 15.403.378 8.345 6.839 15.403 15.564 15.403z" fill="#ffbe40"/><g><g><path d="m423.113 244.498h-104.711c-8.284 0-15-6.716-15-15s6.716-15 15-15h104.711c8.284 0 15 6.716 15 15s-6.716 15-15 15z" fill="#152133"/></g><g><path d="m423.113 305.953h-104.711c-8.284 0-15-6.716-15-15s6.716-15 15-15h104.711c8.284 0 15 6.716 15 15s-6.716 15-15 15z" fill="#152133"/></g><g><path d="m423.113 367.409h-104.711c-8.284 0-15-6.716-15-15s6.716-15 15-15h104.711c8.284 0 15 6.716 15 15s-6.716 15-15 15z" fill="#152133"/></g><g><path d="m423.113 428.864h-334.226c-8.284 0-15-6.716-15-15s6.716-15 15-15h334.227c8.284 0 15 6.716 15 15s-6.717 15-15.001 15z" fill="#293f65"/></g><path d="m241 214.498h-152.113c-8.284 0-15 6.716-15 15v127.927c0 8.284 6.716 15 15 15h152.113c8.284 0 15-6.716 15-15v-127.927c0-8.284-6.716-15-15-15z" fill="#dd4e4e"/></g><path d="m423.113 398.864h-167.113v30h167.113c8.284 0 15-6.716 15-15s-6.716-15-15-15z" fill="#152133"/></g></svg>