<svg height="512" viewBox="0 0 74 74" width="512" xmlns="http://www.w3.org/2000/svg"><g id="Numbers"><text fill="rgb(0,0,0)" font-family="ArialMT, Arial" font-size="18" transform="translate(31.995 -141.877)">6<tspan x="-5.005" y="124">16</tspan><tspan x="-5.005" y="248">26</tspan><tspan x="-5.005" y="372">36</tspan><tspan x="-5.005" y="496">46</tspan><tspan x="-5.005" y="620">56</tspan><tspan x="-5.005" y="744">66</tspan><tspan x="-5.005" y="868">76</tspan><tspan x="-5.005" y="992">86</tspan><tspan x="-5.005" y="1116">96</tspan><tspan x="-10.011" y="1240">106</tspan><tspan letter-spacing="-.074em" x="-9.343" y="1364">1</tspan><tspan x="-.668" y="1364">16</tspan><tspan x="-10.011" y="1488">126</tspan><tspan x="-10.011" y="1612">136</tspan><tspan x="-10.011" y="1736">146</tspan><tspan x="-10.011" y="1860">156</tspan><tspan x="-10.011" y="1984">166</tspan><tspan x="-10.011" y="2108">176</tspan><tspan x="-10.011" y="2232">186</tspan><tspan x="-10.011" y="2356">196</tspan><tspan x="-10.011" y="2480">206</tspan><tspan x="-10.011" y="2604">216</tspan><tspan x="-10.011" y="2728">226</tspan><tspan x="-10.011" y="2852">236</tspan><tspan x="-10.011" y="2976">246</tspan><tspan x="-10.011" y="3100">256</tspan><tspan x="-10.011" y="3224">266</tspan><tspan x="-10.011" y="3348">276</tspan><tspan x="-10.011" y="3472">286</tspan><tspan x="-10.011" y="3596">296</tspan></text></g><g id="Icons"><path d="m63.22 40.92a1 1 0 0 1 -1-1v-24.14a2.227 2.227 0 0 0 -2.22-2.23h-11.81a1 1 0 0 1 0-2h11.81a4.229 4.229 0 0 1 4.22 4.23v24.14a1 1 0 0 1 -1 1z"/><path d="m31.22 13.55h-2.9a1 1 0 0 1 0-2h2.9a1 1 0 0 1 0 2z"/><path d="m49.4 54.42h-43.17a4.235 4.235 0 0 1 -4.23-4.23v-34.41a4.234 4.234 0 0 1 4.23-4.23h15.09a1 1 0 0 1 0 2h-15.09a2.233 2.233 0 0 0 -2.23 2.23v34.41a2.233 2.233 0 0 0 2.23 2.23h43.17a1 1 0 0 1 0 2z"/><path d="m41.19 13.55h-2.97a1 1 0 0 1 0-2h2.97a1 1 0 0 1 0 2z"/><path d="m49.265 49.043h-39.813a2.078 2.078 0 0 1 -2.075-2.076v-27.96a2.078 2.078 0 0 1 2.075-2.076h47.319a2.078 2.078 0 0 1 2.075 2.076v20.648a1 1 0 0 1 -2 0v-20.648a.079.079 0 0 0 -.075-.076h-47.319a.079.079 0 0 0 -.075.076v27.96a.079.079 0 0 0 .075.076h39.813a1 1 0 0 1 0 2z"/><path d="m23.433 49.043a1 1 0 0 1 -.707-1.707l19.357-19.357a1 1 0 0 1 1.357-.053l13.368 11.442a1 1 0 0 1 -1.3 1.52l-12.665-10.841-18.7 18.7a1 1 0 0 1 -.71.296z"/><path d="m8.377 43.354a1 1 0 0 1 -.662-1.75l11.83-10.442a1 1 0 0 1 1.313-.01l10.42 8.937a1 1 0 0 1 -1.3 1.518l-9.759-8.37-11.18 9.863a1 1 0 0 1 -.662.254z"/><path d="m29.314 30.9a4.226 4.226 0 1 1 4.226-4.226 4.231 4.231 0 0 1 -4.226 4.226zm0-6.452a2.226 2.226 0 1 0 2.226 2.226 2.228 2.228 0 0 0 -2.226-2.231z"/><path d="m60 62.446a12 12 0 1 1 12-12 12.017 12.017 0 0 1 -12 12zm0-22.007a10 10 0 1 0 10 10 10.015 10.015 0 0 0 -10-10z"/><path d="m55.686 53.323a2.881 2.881 0 1 1 2.879-2.88 2.884 2.884 0 0 1 -2.879 2.88zm0-3.761a.881.881 0 1 0 .879.881.882.882 0 0 0 -.879-.881z"/><path d="m63.153 49.48a2.881 2.881 0 1 1 2.88-2.881 2.884 2.884 0 0 1 -2.88 2.881zm0-3.761a.881.881 0 1 0 .88.88.882.882 0 0 0 -.88-.88z"/><path d="m63.153 57.167a2.881 2.881 0 1 1 2.88-2.881 2.884 2.884 0 0 1 -2.88 2.881zm0-3.762a.881.881 0 1 0 .88.881.882.882 0 0 0 -.88-.881z"/><path d="m57.024 47.42h4.665v2.001h-4.665z" transform="matrix(.915 -.404 .404 .915 -14.505 28.119)"/><path d="m58.356 50.133h2.001v4.665h-2.001z" transform="matrix(.404 -.915 .915 .404 -12.611 85.58)"/></g></svg>