<svg id="Capa_1" enable-background="new 0 0 511.875 511.875" height="512" viewBox="0 0 511.875 511.875" width="512" xmlns="http://www.w3.org/2000/svg"><g><path d="m255.938 478.26c-80.507 0-162.146-3.9-242.654-11.59-17.711-139.831-17.711-281.632 0-421.463 80.505-7.691 162.146-11.59 242.654-11.59s162.149 3.9 242.654 11.59c17.711 139.831 17.711 281.632 0 421.463-80.508 7.69-162.148 11.59-242.654 11.59z" fill="#f1f1f4"/><path d="m255.938 417.053c-68.182 0-109.639-10.39-178.055-16.008-6.369-60.033-36.953-92.831-36.656-153.162.27-54.961 3.307-109.91 9.109-164.599 68.415-5.618 137.42-8.461 205.602-8.461 68.181 0 137.185 2.843 205.602 8.461 8.12 76.532 10.823 153.572 8.109 230.442-1.354 38.359-29.368 63.795-33.42 101.985-68.417 5.618-112.11 1.342-180.291 1.342z" fill="#90d8f9"/><path d="m469.494 317.925c-1.391 36.953-4.049 73.864-7.953 110.662-68.414 5.625-137.416 8.468-205.604 8.468-68.177 0-137.179-2.843-205.593-8.468-.165-1.597-.34-3.204-.494-4.801-6.037-58.442-8.901-117.183-8.612-175.914 56.722-31.585 122.839-43.062 184.341-23.045 24.724 8.046 48.707 21.181 71.031 40.146 53.786 45.709 105.666 77.779 172.875 52.951h.009z" fill="#93d3a2"/><path d="m49.85 423.786c-6.037-58.442-8.901-117.183-8.612-175.914 56.722-31.585 122.839-43.062 184.341-23.045-54.6-12.795-107.953 87.421-48.449 119.769 62.748 34.12 132.904-2.812 158.411 46.235 15.791 30.37-154.044 34.336-285.691 32.955z" fill="#6ec17d"/><path d="m464.211 401.044c-.814 9.189-1.71 18.368-2.678 27.547-68.414 5.625-137.416 8.468-205.604 8.468-68.177 0-137.179-2.843-205.593-8.468-2.967-27.939-5.213-55.949-6.727-83.991 123.89 123.89 243.597-48.366 420.602 56.444z" fill="#5ea570"/><circle cx="349.512" cy="172.376" fill="#f9ef63" r="55.588"/><path d="m365.615 225.574c-5.099 1.556-10.508 2.38-16.112 2.38-30.699 0-55.578-24.879-55.578-55.578 0-30.71 24.879-55.589 55.578-55.589 5.604 0 11.013.824 16.112 2.38-22.839 6.892-39.477 28.103-39.477 53.209 0 25.095 16.638 46.307 39.477 53.198z" fill="#f1d333"/></g></svg>