<svg height="512" viewBox="0 0 128 128" width="512" xmlns="http://www.w3.org/2000/svg"><g id="Circle_Grid" data-name="Circle Grid"><circle cx="64" cy="64" fill="#ef5261" r="64"/></g><g id="icon"><path d="m42.813 58.055h1.973a2.27 2.27 0 0 0 2.125-1.439c.749-1.942 3.246-5.827 11.508-11.518a29.666 29.666 0 0 0 12.539-19.833 5.115 5.115 0 0 1 5.051-4.365h.05a5.171 5.171 0 0 1 5.168 4.948c.246 5.674-.336 14.928-5.818 20.664h23.819a5.772 5.772 0 0 1 5.772 5.771 5.772 5.772 0 0 1 -5.772 5.772l-1.668.1a.239.239 0 0 0 -.224.238.239.239 0 0 0 .239.239h.24a5.711 5.711 0 0 1 5.528 7.265 6.172 6.172 0 0 1 -4.756 4.031s3.976 1.2 3.744 6.413c-.159 3.585-5.481 4.217-5.481 4.217s7.761 9.411-6.306 13.291-28.232 1.5-28.232 1.5l-18.917-1.98z" fill="#fed19a"/><path d="m38.3 56.856h6.152v37.456h-6.152z" fill="#fff"/><rect fill="#575b6d" height="46.411" rx="2" width="16.27" x="23" y="52.69"/><circle cx="31.135" cy="61.302" fill="#eeefee" r="3.297"/></g></svg>